<svg width="134" height="24" viewBox="0 0 134 24" fill="none" xmlns="http://www.w3.org/2000/svg">
<path d="M47.566 4.31H51.832C53.86 4.31 55.426 4.862 56.53 5.966C57.646 7.058 58.204 8.618 58.204 10.646C58.204 12.674 57.646 14.24 56.53 15.344C55.426 16.448 53.86 17 51.832 17H47.566V4.31ZM51.742 15.74C55.03 15.74 56.674 14.042 56.674 10.646C56.674 7.262 55.03 5.57 51.742 5.57H49.042V15.74H51.742ZM64.2206 8.018C65.3366 8.018 66.1646 8.306 66.7046 8.882C67.2566 9.446 67.5326 10.31 67.5326 11.474V17H66.1106V15.506C65.8826 16.022 65.5346 16.424 65.0666 16.712C64.5986 16.988 64.0586 17.126 63.4466 17.126C62.8826 17.126 62.3606 17.012 61.8806 16.784C61.4126 16.556 61.0406 16.238 60.7646 15.83C60.4886 15.422 60.3506 14.972 60.3506 14.48C60.3506 13.82 60.5186 13.31 60.8546 12.95C61.1906 12.578 61.7426 12.314 62.5106 12.158C63.2786 11.99 64.3466 11.906 65.7146 11.906H66.1106V11.312C66.1106 10.58 65.9606 10.052 65.6606 9.728C65.3606 9.392 64.8746 9.224 64.2026 9.224C63.1946 9.224 62.1926 9.536 61.1966 10.16L60.7106 9.098C61.1666 8.774 61.7126 8.516 62.3486 8.324C62.9966 8.12 63.6206 8.018 64.2206 8.018ZM63.6446 15.974C64.3646 15.974 64.9526 15.734 65.4086 15.254C65.8766 14.762 66.1106 14.132 66.1106 13.364V12.842H65.7866C64.7306 12.842 63.9266 12.89 63.3746 12.986C62.8226 13.07 62.4266 13.22 62.1866 13.436C61.9586 13.64 61.8446 13.946 61.8446 14.354C61.8446 14.822 62.0126 15.212 62.3486 15.524C62.6966 15.824 63.1286 15.974 63.6446 15.974ZM73.1716 17.126C71.6956 17.126 70.5256 16.748 69.6616 15.992L70.1476 14.912C70.6156 15.284 71.0896 15.554 71.5696 15.722C72.0616 15.878 72.6136 15.956 73.2256 15.956C73.8736 15.956 74.3656 15.848 74.7016 15.632C75.0496 15.404 75.2236 15.08 75.2236 14.66C75.2236 14.312 75.1096 14.036 74.8816 13.832C74.6536 13.628 74.2756 13.466 73.7476 13.346L72.2716 13.004C71.5276 12.836 70.9576 12.548 70.5616 12.14C70.1656 11.732 69.9676 11.228 69.9676 10.628C69.9676 9.848 70.2736 9.218 70.8856 8.738C71.4976 8.258 72.3136 8.018 73.3336 8.018C73.9456 8.018 74.5276 8.12 75.0796 8.324C75.6316 8.516 76.0936 8.798 76.4656 9.17L75.9796 10.232C75.1756 9.548 74.2936 9.206 73.3336 9.206C72.7216 9.206 72.2416 9.326 71.8936 9.566C71.5576 9.794 71.3896 10.118 71.3896 10.538C71.3896 10.886 71.4916 11.168 71.6956 11.384C71.9116 11.588 72.2536 11.744 72.7216 11.852L74.2156 12.212C75.0316 12.404 75.6376 12.698 76.0336 13.094C76.4296 13.478 76.6276 13.982 76.6276 14.606C76.6276 15.374 76.3156 15.986 75.6916 16.442C75.0796 16.898 74.2396 17.126 73.1716 17.126ZM83.26 8.018C85.36 8.018 86.41 9.176 86.41 11.492V17H84.952V11.582C84.952 10.766 84.79 10.172 84.466 9.8C84.154 9.428 83.65 9.242 82.954 9.242C82.15 9.242 81.508 9.488 81.028 9.98C80.548 10.472 80.308 11.138 80.308 11.978V17H78.85V4.31H80.308V9.638C80.596 9.11 80.992 8.708 81.496 8.432C82.012 8.156 82.6 8.018 83.26 8.018ZM93.4905 8.018C94.2585 8.018 94.9365 8.204 95.5245 8.576C96.1125 8.948 96.5685 9.476 96.8925 10.16C97.2165 10.844 97.3785 11.636 97.3785 12.536C97.3785 13.448 97.2165 14.252 96.8925 14.948C96.5685 15.632 96.1125 16.166 95.5245 16.55C94.9365 16.934 94.2585 17.126 93.4905 17.126C92.8065 17.126 92.2065 16.976 91.6905 16.676C91.1865 16.376 90.8025 15.95 90.5385 15.398V17H89.0805V4.31H90.5385V9.746C90.8025 9.194 91.1865 8.768 91.6905 8.468C92.2065 8.168 92.8065 8.018 93.4905 8.018ZM93.2025 15.92C94.0545 15.92 94.7145 15.626 95.1825 15.038C95.6505 14.438 95.8845 13.604 95.8845 12.536C95.8845 11.492 95.6505 10.682 95.1825 10.106C94.7145 9.53 94.0545 9.242 93.2025 9.242C92.3505 9.242 91.6905 9.53 91.2225 10.106C90.7665 10.682 90.5385 11.504 90.5385 12.572C90.5385 13.64 90.7665 14.468 91.2225 15.056C91.6905 15.632 92.3505 15.92 93.2025 15.92ZM103.193 17.126C102.365 17.126 101.633 16.94 100.997 16.568C100.373 16.196 99.887 15.668 99.539 14.984C99.203 14.288 99.035 13.484 99.035 12.572C99.035 11.66 99.203 10.862 99.539 10.178C99.887 9.482 100.373 8.948 100.997 8.576C101.633 8.204 102.365 8.018 103.193 8.018C104.021 8.018 104.753 8.204 105.389 8.576C106.025 8.948 106.511 9.482 106.847 10.178C107.195 10.862 107.369 11.66 107.369 12.572C107.369 13.484 107.195 14.288 106.847 14.984C106.511 15.668 106.025 16.196 105.389 16.568C104.753 16.94 104.021 17.126 103.193 17.126ZM103.193 15.92C104.057 15.92 104.717 15.638 105.173 15.074C105.641 14.498 105.875 13.664 105.875 12.572C105.875 11.504 105.641 10.682 105.173 10.106C104.705 9.518 104.045 9.224 103.193 9.224C102.341 9.224 101.681 9.518 101.213 10.106C100.745 10.682 100.511 11.504 100.511 12.572C100.511 13.652 100.739 14.48 101.195 15.056C101.663 15.632 102.329 15.92 103.193 15.92ZM113.105 8.018C114.221 8.018 115.049 8.306 115.589 8.882C116.141 9.446 116.417 10.31 116.417 11.474V17H114.995V15.506C114.767 16.022 114.419 16.424 113.951 16.712C113.483 16.988 112.943 17.126 112.331 17.126C111.767 17.126 111.245 17.012 110.765 16.784C110.297 16.556 109.925 16.238 109.649 15.83C109.373 15.422 109.235 14.972 109.235 14.48C109.235 13.82 109.403 13.31 109.739 12.95C110.075 12.578 110.627 12.314 111.395 12.158C112.163 11.99 113.231 11.906 114.599 11.906H114.995V11.312C114.995 10.58 114.845 10.052 114.545 9.728C114.245 9.392 113.759 9.224 113.087 9.224C112.079 9.224 111.077 9.536 110.081 10.16L109.595 9.098C110.051 8.774 110.597 8.516 111.233 8.324C111.881 8.12 112.505 8.018 113.105 8.018ZM112.529 15.974C113.249 15.974 113.837 15.734 114.293 15.254C114.761 14.762 114.995 14.132 114.995 13.364V12.842H114.671C113.615 12.842 112.811 12.89 112.259 12.986C111.707 13.07 111.311 13.22 111.071 13.436C110.843 13.64 110.729 13.946 110.729 14.354C110.729 14.822 110.897 15.212 111.233 15.524C111.581 15.824 112.013 15.974 112.529 15.974ZM124.054 9.278L123.1 9.368C122.2 9.452 121.546 9.734 121.138 10.214C120.742 10.694 120.544 11.288 120.544 11.996V17H119.086V8.234H120.508V9.764C121 8.744 121.966 8.174 123.406 8.054L123.928 8.018L124.054 9.278ZM133.032 4.31V17H131.574V15.398C131.31 15.95 130.92 16.376 130.404 16.676C129.9 16.976 129.306 17.126 128.622 17.126C127.854 17.126 127.176 16.934 126.588 16.55C126 16.166 125.544 15.632 125.22 14.948C124.896 14.252 124.734 13.448 124.734 12.536C124.734 11.636 124.896 10.844 125.22 10.16C125.544 9.476 126 8.948 126.588 8.576C127.176 8.204 127.854 8.018 128.622 8.018C129.306 8.018 129.9 8.168 130.404 8.468C130.92 8.768 131.31 9.194 131.574 9.746V4.31H133.032ZM128.91 15.92C129.762 15.92 130.416 15.632 130.872 15.056C131.34 14.468 131.574 13.64 131.574 12.572C131.574 11.504 131.34 10.682 130.872 10.106C130.416 9.53 129.762 9.242 128.91 9.242C128.058 9.242 127.392 9.53 126.912 10.106C126.444 10.682 126.21 11.492 126.21 12.536C126.21 13.604 126.444 14.438 126.912 15.038C127.392 15.626 128.058 15.92 128.91 15.92Z" fill="#3A3D42" fill-opacity="0.8"/>
<path d="M9.66667 1.5H1.5V9.66667H9.66667V1.5Z" stroke="#3A3D42" stroke-opacity="0.8" stroke-width="2" stroke-linecap="round" stroke-linejoin="round"/>
<path d="M22.4999 1.5H14.3333V9.66667H22.4999V1.5Z" stroke="#3A3D42" stroke-opacity="0.8" stroke-width="2" stroke-linecap="round" stroke-linejoin="round"/>
<path d="M22.4999 14.333H14.3333V22.4997H22.4999V14.333Z" stroke="#3A3D42" stroke-opacity="0.8" stroke-width="2" stroke-linecap="round" stroke-linejoin="round"/>
<path d="M9.66667 14.333H1.5V22.4997H9.66667V14.333Z" stroke="#3A3D42" stroke-opacity="0.8" stroke-width="2" stroke-linecap="round" stroke-linejoin="round"/>
</svg>
