<svg width="103" height="24" viewBox="0 0 103 24" fill="none" xmlns="http://www.w3.org/2000/svg">
<path d="M8.5 22.5H3.83333C3.21449 22.5 2.621 22.2542 2.18342 21.8166C1.74583 21.379 1.5 20.7855 1.5 20.1667V3.83333C1.5 3.21449 1.74583 2.621 2.18342 2.18342C2.621 1.74583 3.21449 1.5 3.83333 1.5H8.5" stroke="#3A3D42" stroke-opacity="0.8" stroke-width="2" stroke-linecap="round" stroke-linejoin="round"/>
<path d="M16.6666 17.8337L22.5 12.0003L16.6666 6.16699" stroke="#3A3D42" stroke-opacity="0.8" stroke-width="2" stroke-linecap="round" stroke-linejoin="round"/>
<path d="M22.5 12H8.5" stroke="#3A3D42" stroke-opacity="0.8" stroke-width="2" stroke-linecap="round" stroke-linejoin="round"/>
<path d="M47.566 17V4.31H49.042V15.74H55.396V17H47.566ZM60.6891 17.126C59.8611 17.126 59.1291 16.94 58.4931 16.568C57.8691 16.196 57.3831 15.668 57.0351 14.984C56.6991 14.288 56.5311 13.484 56.5311 12.572C56.5311 11.66 56.6991 10.862 57.0351 10.178C57.3831 9.482 57.8691 8.948 58.4931 8.576C59.1291 8.204 59.8611 8.018 60.6891 8.018C61.5171 8.018 62.2491 8.204 62.8851 8.576C63.5211 8.948 64.0071 9.482 64.3431 10.178C64.6911 10.862 64.8651 11.66 64.8651 12.572C64.8651 13.484 64.6911 14.288 64.3431 14.984C64.0071 15.668 63.5211 16.196 62.8851 16.568C62.2491 16.94 61.5171 17.126 60.6891 17.126ZM60.6891 15.92C61.5531 15.92 62.2131 15.638 62.6691 15.074C63.1371 14.498 63.3711 13.664 63.3711 12.572C63.3711 11.504 63.1371 10.682 62.6691 10.106C62.2011 9.518 61.5411 9.224 60.6891 9.224C59.8371 9.224 59.1771 9.518 58.7091 10.106C58.2411 10.682 58.0071 11.504 58.0071 12.572C58.0071 13.652 58.2351 14.48 58.6911 15.056C59.1591 15.632 59.8251 15.92 60.6891 15.92ZM74.8855 8.234V16.406C74.8855 17.714 74.5495 18.698 73.8775 19.358C73.2055 20.03 72.2095 20.366 70.8895 20.366C69.3535 20.366 68.0635 19.97 67.0195 19.178L67.5055 18.098C68.0935 18.482 68.6455 18.758 69.1615 18.926C69.6775 19.094 70.2535 19.178 70.8895 19.178C71.7295 19.178 72.3655 18.95 72.7975 18.494C73.2295 18.05 73.4455 17.396 73.4455 16.532V14.984C73.1935 15.548 72.8035 15.98 72.2755 16.28C71.7595 16.58 71.1475 16.73 70.4395 16.73C69.6715 16.73 68.9875 16.55 68.3875 16.19C67.7995 15.83 67.3375 15.32 67.0015 14.66C66.6775 14 66.5155 13.238 66.5155 12.374C66.5155 11.51 66.6775 10.748 67.0015 10.088C67.3375 9.428 67.7995 8.918 68.3875 8.558C68.9875 8.198 69.6715 8.018 70.4395 8.018C71.1355 8.018 71.7415 8.168 72.2575 8.468C72.7735 8.768 73.1635 9.194 73.4275 9.746V8.234H74.8855ZM70.7275 15.524C71.5675 15.524 72.2275 15.248 72.7075 14.696C73.1875 14.132 73.4275 13.358 73.4275 12.374C73.4275 11.402 73.1875 10.64 72.7075 10.088C72.2395 9.524 71.5795 9.242 70.7275 9.242C69.8755 9.242 69.2035 9.524 68.7115 10.088C68.2315 10.64 67.9915 11.402 67.9915 12.374C67.9915 13.358 68.2315 14.132 68.7115 14.696C69.2035 15.248 69.8755 15.524 70.7275 15.524ZM81.2204 17.126C80.3924 17.126 79.6604 16.94 79.0244 16.568C78.4004 16.196 77.9144 15.668 77.5664 14.984C77.2304 14.288 77.0624 13.484 77.0624 12.572C77.0624 11.66 77.2304 10.862 77.5664 10.178C77.9144 9.482 78.4004 8.948 79.0244 8.576C79.6604 8.204 80.3924 8.018 81.2204 8.018C82.0484 8.018 82.7804 8.204 83.4164 8.576C84.0524 8.948 84.5384 9.482 84.8744 10.178C85.2224 10.862 85.3964 11.66 85.3964 12.572C85.3964 13.484 85.2224 14.288 84.8744 14.984C84.5384 15.668 84.0524 16.196 83.4164 16.568C82.7804 16.94 82.0484 17.126 81.2204 17.126ZM81.2204 15.92C82.0844 15.92 82.7444 15.638 83.2004 15.074C83.6684 14.498 83.9024 13.664 83.9024 12.572C83.9024 11.504 83.6684 10.682 83.2004 10.106C82.7324 9.518 82.0724 9.224 81.2204 9.224C80.3684 9.224 79.7084 9.518 79.2404 10.106C78.7724 10.682 78.5384 11.504 78.5384 12.572C78.5384 13.652 78.7664 14.48 79.2224 15.056C79.6904 15.632 80.3564 15.92 81.2204 15.92ZM94.9488 8.234V17H93.5268V15.506C93.2508 16.034 92.8608 16.436 92.3568 16.712C91.8648 16.988 91.3068 17.126 90.6828 17.126C89.6388 17.126 88.8528 16.838 88.3248 16.262C87.7968 15.674 87.5328 14.81 87.5328 13.67V8.234H88.9908V13.634C88.9908 14.414 89.1468 14.99 89.4588 15.362C89.7708 15.722 90.2628 15.902 90.9348 15.902C91.7028 15.902 92.3208 15.656 92.7888 15.164C93.2568 14.66 93.4908 14 93.4908 13.184V8.234H94.9488ZM101.511 15.956C101.775 15.956 102.039 15.938 102.303 15.902L102.231 17.054C101.955 17.102 101.655 17.126 101.331 17.126C100.275 17.126 99.4766 16.85 98.9366 16.298C98.4086 15.746 98.1446 14.978 98.1446 13.994V9.386H96.4346V8.234H98.1446V5.57H99.6026V8.234H102.087V9.386H99.6026V13.886C99.6026 15.266 100.239 15.956 101.511 15.956Z" fill="#3A3D42" fill-opacity="0.8"/>
</svg>
