<svg width="96" height="24" viewBox="0 0 96 24" fill="none" xmlns="http://www.w3.org/2000/svg">
<path d="M46.566 4.31H51.588C52.92 4.31 53.952 4.634 54.684 5.282C55.428 5.93 55.8 6.848 55.8 8.036C55.8 9.224 55.428 10.148 54.684 10.808C53.94 11.468 52.908 11.798 51.588 11.798H48.042V17H46.566V4.31ZM51.444 10.574C53.376 10.574 54.342 9.728 54.342 8.036C54.342 6.368 53.376 5.534 51.444 5.534H48.042V10.574H51.444ZM62.7438 9.278L61.7898 9.368C60.8898 9.452 60.2358 9.734 59.8278 10.214C59.4318 10.694 59.2338 11.288 59.2338 11.996V17H57.7758V8.234H59.1978V9.764C59.6898 8.744 60.6558 8.174 62.0958 8.054L62.6178 8.018L62.7438 9.278ZM67.5817 17.126C66.7537 17.126 66.0217 16.94 65.3857 16.568C64.7617 16.196 64.2757 15.668 63.9277 14.984C63.5917 14.288 63.4237 13.484 63.4237 12.572C63.4237 11.66 63.5917 10.862 63.9277 10.178C64.2757 9.482 64.7617 8.948 65.3857 8.576C66.0217 8.204 66.7537 8.018 67.5817 8.018C68.4097 8.018 69.1417 8.204 69.7777 8.576C70.4137 8.948 70.8997 9.482 71.2357 10.178C71.5837 10.862 71.7577 11.66 71.7577 12.572C71.7577 13.484 71.5837 14.288 71.2357 14.984C70.8997 15.668 70.4137 16.196 69.7777 16.568C69.1417 16.94 68.4097 17.126 67.5817 17.126ZM67.5817 15.92C68.4457 15.92 69.1057 15.638 69.5617 15.074C70.0297 14.498 70.2637 13.664 70.2637 12.572C70.2637 11.504 70.0297 10.682 69.5617 10.106C69.0937 9.518 68.4337 9.224 67.5817 9.224C66.7297 9.224 66.0697 9.518 65.6017 10.106C65.1337 10.682 64.8997 11.504 64.8997 12.572C64.8997 13.652 65.1277 14.48 65.5837 15.056C66.0517 15.632 66.7177 15.92 67.5817 15.92ZM75.8565 8.234H81.2565V17H79.7985V9.386H75.8565V17H74.3985V9.386H72.6885V8.234H74.3985V7.946C74.3985 6.77 74.6925 5.882 75.2805 5.282C75.8685 4.682 76.7685 4.352 77.9805 4.292L78.6465 4.256L78.7365 5.39L77.9085 5.444C77.1885 5.492 76.6665 5.702 76.3425 6.074C76.0185 6.446 75.8565 7.004 75.8565 7.748V8.234ZM79.6365 4.418H81.4365V6.092H79.6365V4.418ZM83.9672 17V4.31H85.4252V17H83.9672ZM95.4948 12.842H89.0868C89.1348 13.862 89.4108 14.636 89.9148 15.164C90.4188 15.68 91.1328 15.938 92.0568 15.938C93.0768 15.938 94.0128 15.59 94.8648 14.894L95.3508 15.956C94.9668 16.316 94.4748 16.604 93.8748 16.82C93.2748 17.024 92.6628 17.126 92.0388 17.126C90.6708 17.126 89.5908 16.724 88.7988 15.92C88.0188 15.116 87.6288 14.006 87.6288 12.59C87.6288 11.69 87.8028 10.898 88.1508 10.214C88.4988 9.518 88.9848 8.978 89.6088 8.594C90.2448 8.21 90.9648 8.018 91.7688 8.018C92.9328 8.018 93.8448 8.402 94.5048 9.17C95.1648 9.926 95.4948 10.97 95.4948 12.302V12.842ZM91.7868 9.152C91.0188 9.152 90.4008 9.392 89.9328 9.872C89.4768 10.352 89.2068 11.03 89.1228 11.906H94.2168C94.1928 11.018 93.9708 10.34 93.5508 9.872C93.1308 9.392 92.5428 9.152 91.7868 9.152Z" fill="#3A3D42" fill-opacity="0.8"/>
<path d="M20.3333 22.5V20.1667C20.3333 18.929 19.8416 17.742 18.9665 16.8668C18.0913 15.9917 16.9043 15.5 15.6666 15.5H6.33329C5.09562 15.5 3.90863 15.9917 3.03346 16.8668C2.15829 17.742 1.66663 18.929 1.66663 20.1667V22.5" stroke="#3A3D42" stroke-opacity="0.8" stroke-width="2" stroke-linecap="round" stroke-linejoin="round"/>
<path d="M11 10.8333C13.5774 10.8333 15.6667 8.744 15.6667 6.16667C15.6667 3.58934 13.5774 1.5 11 1.5C8.42271 1.5 6.33337 3.58934 6.33337 6.16667C6.33337 8.744 8.42271 10.8333 11 10.8333Z" stroke="#3A3D42" stroke-opacity="0.8" stroke-width="2" stroke-linecap="round" stroke-linejoin="round"/>
</svg>
