<svg width="102" height="20" viewBox="0 0 102 20" fill="none" xmlns="http://www.w3.org/2000/svg">
<path d="M48.626 15V3.57H44.216V2.31H54.548V3.57H50.12V15H48.626ZM58.3727 15.126C57.5447 15.126 56.8127 14.94 56.1767 14.568C55.5527 14.196 55.0667 13.668 54.7187 12.984C54.3827 12.288 54.2147 11.484 54.2147 10.572C54.2147 9.66 54.3827 8.862 54.7187 8.178C55.0667 7.482 55.5527 6.948 56.1767 6.576C56.8127 6.204 57.5447 6.018 58.3727 6.018C59.2007 6.018 59.9327 6.204 60.5687 6.576C61.2047 6.948 61.6907 7.482 62.0267 8.178C62.3747 8.862 62.5487 9.66 62.5487 10.572C62.5487 11.484 62.3747 12.288 62.0267 12.984C61.6907 13.668 61.2047 14.196 60.5687 14.568C59.9327 14.94 59.2007 15.126 58.3727 15.126ZM58.3727 13.92C59.2367 13.92 59.8967 13.638 60.3527 13.074C60.8207 12.498 61.0547 11.664 61.0547 10.572C61.0547 9.504 60.8207 8.682 60.3527 8.106C59.8847 7.518 59.2247 7.224 58.3727 7.224C57.5207 7.224 56.8607 7.518 56.3927 8.106C55.9247 8.682 55.6907 9.504 55.6907 10.572C55.6907 11.652 55.9187 12.48 56.3747 13.056C56.8427 13.632 57.5087 13.92 58.3727 13.92ZM69.1311 6.018C69.8991 6.018 70.5771 6.21 71.1651 6.594C71.7531 6.978 72.2091 7.518 72.5331 8.214C72.8571 8.898 73.0191 9.696 73.0191 10.608C73.0191 11.52 72.8571 12.318 72.5331 13.002C72.2091 13.674 71.7531 14.196 71.1651 14.568C70.5891 14.94 69.9111 15.126 69.1311 15.126C68.4471 15.126 67.8471 14.976 67.3311 14.676C66.8271 14.376 66.4431 13.95 66.1791 13.398V18.24H64.7211V6.234H66.1791V7.746C66.4431 7.194 66.8271 6.768 67.3311 6.468C67.8471 6.168 68.4471 6.018 69.1311 6.018ZM68.8431 13.92C69.6951 13.92 70.3551 13.632 70.8231 13.056C71.2911 12.48 71.5251 11.664 71.5251 10.608C71.5251 9.552 71.2911 8.73 70.8231 8.142C70.3551 7.542 69.6951 7.242 68.8431 7.242C67.9911 7.242 67.3311 7.53 66.8631 8.106C66.4071 8.682 66.1791 9.504 66.1791 10.572C66.1791 11.64 66.4071 12.468 66.8631 13.056C67.3311 13.632 67.9911 13.92 68.8431 13.92ZM85.0043 15.144C83.3483 15.144 82.0943 14.712 81.2423 13.848C80.3903 12.984 79.9643 11.712 79.9643 10.032V2.31H81.4223V10.158C81.4223 11.394 81.7223 12.324 82.3223 12.948C82.9343 13.572 83.8283 13.884 85.0043 13.884C86.1803 13.884 87.0683 13.572 87.6683 12.948C88.2683 12.324 88.5683 11.394 88.5683 10.158V2.31H90.0443V10.032C90.0443 11.7 89.6123 12.972 88.7483 13.848C87.8963 14.712 86.6483 15.144 85.0043 15.144ZM97.2737 6.018C98.0417 6.018 98.7197 6.21 99.3077 6.594C99.8957 6.978 100.352 7.518 100.676 8.214C101 8.898 101.162 9.696 101.162 10.608C101.162 11.52 101 12.318 100.676 13.002C100.352 13.674 99.8957 14.196 99.3077 14.568C98.7317 14.94 98.0537 15.126 97.2737 15.126C96.5897 15.126 95.9897 14.976 95.4737 14.676C94.9697 14.376 94.5857 13.95 94.3217 13.398V18.24H92.8637V6.234H94.3217V7.746C94.5857 7.194 94.9697 6.768 95.4737 6.468C95.9897 6.168 96.5897 6.018 97.2737 6.018ZM96.9857 13.92C97.8377 13.92 98.4977 13.632 98.9657 13.056C99.4337 12.48 99.6677 11.664 99.6677 10.608C99.6677 9.552 99.4337 8.73 98.9657 8.142C98.4977 7.542 97.8377 7.242 96.9857 7.242C96.1337 7.242 95.4737 7.53 95.0057 8.106C94.5497 8.682 94.3217 9.504 94.3217 10.572C94.3217 11.64 94.5497 12.468 95.0057 13.056C95.4737 13.632 96.1337 13.92 96.9857 13.92Z" fill="#3A3D42" fill-opacity="0.8"/>
<path d="M10 1.83301V18.1663" stroke="#3A3D42" stroke-opacity="0.8" stroke-width="2" stroke-linecap="round" stroke-linejoin="round"/>
<path d="M1.83337 10H18.1667" stroke="#3A3D42" stroke-opacity="0.8" stroke-width="2" stroke-linecap="round" stroke-linejoin="round"/>
</svg>
