<svg width="114" height="28" viewBox="0 0 114 28" fill="none" xmlns="http://www.w3.org/2000/svg">
<path d="M52.626 19V7.57H48.216V6.31H58.548V7.57H54.12V19H52.626ZM63.7047 11.278L62.7507 11.368C61.8507 11.452 61.1967 11.734 60.7887 12.214C60.3927 12.694 60.1947 13.288 60.1947 13.996V19H58.7367V10.234H60.1587V11.764C60.6507 10.744 61.6167 10.174 63.0567 10.054L63.5787 10.018L63.7047 11.278ZM68.5761 10.018C69.6921 10.018 70.5201 10.306 71.0601 10.882C71.6121 11.446 71.8881 12.31 71.8881 13.474V19H70.4661V17.506C70.2381 18.022 69.8901 18.424 69.4221 18.712C68.9541 18.988 68.4141 19.126 67.8021 19.126C67.2381 19.126 66.7161 19.012 66.2361 18.784C65.7681 18.556 65.3961 18.238 65.1201 17.83C64.8441 17.422 64.7061 16.972 64.7061 16.48C64.7061 15.82 64.8741 15.31 65.2101 14.95C65.5461 14.578 66.0981 14.314 66.8661 14.158C67.6341 13.99 68.7021 13.906 70.0701 13.906H70.4661V13.312C70.4661 12.58 70.3161 12.052 70.0161 11.728C69.7161 11.392 69.2301 11.224 68.5581 11.224C67.5501 11.224 66.5481 11.536 65.5521 12.16L65.0661 11.098C65.5221 10.774 66.0681 10.516 66.7041 10.324C67.3521 10.12 67.9761 10.018 68.5761 10.018ZM68.0001 17.974C68.7201 17.974 69.3081 17.734 69.7641 17.254C70.2321 16.762 70.4661 16.132 70.4661 15.364V14.842H70.1421C69.0861 14.842 68.2821 14.89 67.7301 14.986C67.1781 15.07 66.7821 15.22 66.5421 15.436C66.3141 15.64 66.2001 15.946 66.2001 16.354C66.2001 16.822 66.3681 17.212 66.7041 17.524C67.0521 17.824 67.4841 17.974 68.0001 17.974ZM78.967 10.018C81.067 10.018 82.117 11.176 82.117 13.492V19H80.659V13.582C80.659 12.766 80.497 12.172 80.173 11.8C79.861 11.428 79.357 11.242 78.661 11.242C77.857 11.242 77.215 11.488 76.735 11.98C76.255 12.472 76.015 13.138 76.015 13.978V19H74.557V10.234H75.997V11.674C76.285 11.134 76.687 10.726 77.203 10.45C77.719 10.162 78.307 10.018 78.967 10.018ZM87.7575 19.126C86.2815 19.126 85.1115 18.748 84.2475 17.992L84.7335 16.912C85.2015 17.284 85.6755 17.554 86.1555 17.722C86.6475 17.878 87.1995 17.956 87.8115 17.956C88.4595 17.956 88.9515 17.848 89.2875 17.632C89.6355 17.404 89.8095 17.08 89.8095 16.66C89.8095 16.312 89.6955 16.036 89.4675 15.832C89.2395 15.628 88.8615 15.466 88.3335 15.346L86.8575 15.004C86.1135 14.836 85.5435 14.548 85.1475 14.14C84.7515 13.732 84.5535 13.228 84.5535 12.628C84.5535 11.848 84.8595 11.218 85.4715 10.738C86.0835 10.258 86.8995 10.018 87.9195 10.018C88.5315 10.018 89.1135 10.12 89.6655 10.324C90.2175 10.516 90.6795 10.798 91.0515 11.17L90.5655 12.232C89.7615 11.548 88.8795 11.206 87.9195 11.206C87.3075 11.206 86.8275 11.326 86.4795 11.566C86.1435 11.794 85.9755 12.118 85.9755 12.538C85.9755 12.886 86.0775 13.168 86.2815 13.384C86.4975 13.588 86.8395 13.744 87.3075 13.852L88.8015 14.212C89.6175 14.404 90.2235 14.698 90.6195 15.094C91.0155 15.478 91.2135 15.982 91.2135 16.606C91.2135 17.374 90.9015 17.986 90.2775 18.442C89.6655 18.898 88.8255 19.126 87.7575 19.126ZM95.3799 10.234H97.8639V11.386H95.3799V19H93.9219V11.386H92.2119V10.234H93.9219V9.946C93.9219 8.782 94.2099 7.9 94.7859 7.3C95.3739 6.7 96.2739 6.364 97.4859 6.292L98.2059 6.256L98.3139 7.39L97.4859 7.444C96.7539 7.492 96.2199 7.702 95.8839 8.074C95.5479 8.434 95.3799 8.992 95.3799 9.748V10.234ZM106.598 14.842H100.19C100.238 15.862 100.514 16.636 101.018 17.164C101.522 17.68 102.236 17.938 103.16 17.938C104.18 17.938 105.116 17.59 105.968 16.894L106.454 17.956C106.07 18.316 105.578 18.604 104.978 18.82C104.378 19.024 103.766 19.126 103.142 19.126C101.774 19.126 100.694 18.724 99.9023 17.92C99.1223 17.116 98.7323 16.006 98.7323 14.59C98.7323 13.69 98.9063 12.898 99.2543 12.214C99.6023 11.518 100.088 10.978 100.712 10.594C101.348 10.21 102.068 10.018 102.872 10.018C104.036 10.018 104.948 10.402 105.608 11.17C106.268 11.926 106.598 12.97 106.598 14.302V14.842ZM102.89 11.152C102.122 11.152 101.504 11.392 101.036 11.872C100.58 12.352 100.31 13.03 100.226 13.906H105.32C105.296 13.018 105.074 12.34 104.654 11.872C104.234 11.392 103.646 11.152 102.89 11.152ZM113.714 11.278L112.76 11.368C111.86 11.452 111.206 11.734 110.798 12.214C110.402 12.694 110.204 13.288 110.204 13.996V19H108.746V10.234H110.168V11.764C110.66 10.744 111.626 10.174 113.066 10.054L113.588 10.018L113.714 11.278Z" fill="#3A3D42" fill-opacity="0.8"/>
<path d="M14 22.1663V5.83301" stroke="#3A3D42" stroke-opacity="0.8" stroke-width="2" stroke-linecap="round" stroke-linejoin="round"/>
<path d="M5.83337 13.9997L14 5.83301L22.1667 13.9997" stroke="#3A3D42" stroke-opacity="0.8" stroke-width="2" stroke-linecap="round" stroke-linejoin="round"/>
</svg>
